<?xml version="1.0" encoding="utf-8"?>
<svg width="24px" height="24px" viewBox="0 0 24 24" version="1.1" xmlns:xlink="http://www.w3.org/1999/xlink" xmlns="http://www.w3.org/2000/svg">
  <defs>
    <path d="M0 0L24 0L24 24L0 24L0 0Z" id="path_1" />
    <clipPath id="mask_1">
      <use xlink:href="#path_1" />
    </clipPath>
  </defs>
  <g id="Instagram-Old-Icon">
    <path d="M0 0L24 0L24 24L0 24L0 0Z" id="Background" fill="#FFFFFF" fill-opacity="0" fill-rule="evenodd" stroke="none" />
    <g clip-path="url(#mask_1)">
      <path d="M10 12C10 10.8954 10.8954 10 12 10C13.1046 10 14 10.8954 14 12C14 13.1046 13.1046 14 12 14C10.8954 14 10 13.1046 10 12Z" id="Circle" fill="#EEEEEE" fill-rule="evenodd" stroke="none" />
      <path d="M18 3L6 3C4.343 3 3 4.343 3 6L3 18C3 19.657 4.343 21 6 21L18 21C19.657 21 21 19.657 21 18L21 6C21 4.343 19.657 3 18 3L18 3ZM12 17C9.243 17 7 14.757 7 12C7 9.243 9.243 7 12 7C14.757 7 17 9.243 17 12C17 14.757 14.757 17 12 17L12 17ZM17 7C16.448 7 16 6.552 16 6C16 5.448 16.448 5 17 5C17.552 5 18 5.448 18 6C18 6.552 17.552 7 17 7L17 7Z" id="Shape" fill="#EEEEEE" fill-rule="evenodd" stroke="none" />
      <path d="M12 17C9.243 17 7 14.757 7 12C7 9.243 9.243 7 12 7C14.757 7 17 9.243 17 12C17 14.757 14.757 17 12 17L12 17ZM12 10C10.897 10 10 10.897 10 12C10 13.103 10.897 14 12 14C13.103 14 14 13.103 14 12C14 10.897 13.103 10 12 10L12 10Z" id="Shape" fill="none" fill-rule="evenodd" stroke="none" />
      <g id="Group" transform="translate(16 5)" opacity="0.35">
        <path d="M0 1C0 0.447715 0.447715 0 1 0C1.55228 0 2 0.447715 2 1C2 1.55228 1.55228 2 1 2C0.447715 2 0 1.55228 0 1Z" id="Circle" fill="none" fill-rule="evenodd" stroke="none" />
      </g>
    </g>
  </g>
</svg>