<?xml version="1.0" encoding="utf-8"?>
<svg width="1280px" height="720px" viewBox="0 0 1280 720" version="1.1" xmlns:xlink="http://www.w3.org/1999/xlink" xmlns="http://www.w3.org/2000/svg">
  <defs>
    <filter filterUnits="userSpaceOnUse" color-interpolation-filters="sRGB" id="filter_1">
      <feFlood flood-opacity="0" result="BackgroundImageFix" />
      <feColorMatrix in="SourceAlpha" type="matrix" values="0 0 0 0 0 0 0 0 0 0 0 0 0 0 0 0 0 0 127 0" />
      <feMorphology radius="3" operator="dilate" in="SourceAlpha" result="effect0_dropShadow" />
      <feOffset dx="0" dy="0" />
      <feGaussianBlur stdDeviation="2.5" />
      <feColorMatrix type="matrix" values="0 0 0 0 0.39215687 0 0 0 0 0.39215687 0 0 0 0 0.39215687 0 0 0 0.49803922 0" />
      <feBlend mode="normal" in2="BackgroundImageFix" result="effect0_dropShadow" />
      <feBlend mode="normal" in="SourceGraphic" in2="effect0_dropShadow" result="shape" />
    </filter>
    <filter filterUnits="userSpaceOnUse" color-interpolation-filters="sRGB" id="filter_2">
      <feFlood flood-opacity="0" result="BackgroundImageFix" />
      <feColorMatrix in="SourceAlpha" type="matrix" values="0 0 0 0 0 0 0 0 0 0 0 0 0 0 0 0 0 0 127 0" />
      <feMorphology radius="-1" operator="dilate" in="SourceAlpha" result="effect0_dropShadow" />
      <feOffset dx="0" dy="0" />
      <feGaussianBlur stdDeviation="2.5" />
      <feColorMatrix type="matrix" values="0 0 0 0 0.39215687 0 0 0 0 0.39215687 0 0 0 0 0.39215687 0 0 0 0.49803922 0" />
      <feBlend mode="normal" in2="BackgroundImageFix" result="effect0_dropShadow" />
      <feBlend mode="normal" in="SourceGraphic" in2="effect0_dropShadow" result="shape" />
    </filter>
  </defs>
  <g id="Group" transform="translate(0 -6.1035156E-05)">
    <path d="M735.656 78.6271L735.658 78.6271Q735.71 78.6271 735.761 78.6322Q735.813 78.6373 735.864 78.6474Q735.914 78.6576 735.964 78.6726Q736.014 78.6877 736.062 78.7075Q736.11 78.7274 736.155 78.7518Q736.201 78.7763 736.244 78.8051Q736.287 78.8339 736.328 78.8668Q736.368 78.8997 736.404 78.9364Q736.441 78.9731 736.474 79.0132Q736.507 79.0533 736.536 79.0964Q736.564 79.1396 736.589 79.1853Q736.613 79.2311 736.633 79.279Q736.653 79.327 736.668 79.3766Q736.683 79.4262 736.693 79.4771Q736.703 79.528 736.709 79.5796Q736.714 79.6312 736.714 79.6831L736.714 79.8176Q736.714 79.8695 736.709 79.9212Q736.703 79.9728 736.693 80.0237Q736.683 80.0745 736.668 80.1242Q736.653 80.1738 736.633 80.2217Q736.613 80.2697 736.589 80.3154Q736.564 80.3612 736.536 80.4043Q736.507 80.4474 736.474 80.4875Q736.441 80.5276 736.404 80.5643Q736.368 80.601 736.328 80.6339Q736.287 80.6668 736.244 80.6957Q736.201 80.7245 736.155 80.7489Q736.11 80.7734 736.062 80.7932Q736.014 80.8131 735.964 80.8282Q735.914 80.8432 735.864 80.8533Q735.813 80.8635 735.761 80.8686Q735.71 80.8736 735.658 80.8736L735.656 80.8736Q735.604 80.8736 735.552 80.8686Q735.5 80.8635 735.45 80.8533Q735.399 80.8432 735.349 80.8282Q735.299 80.8131 735.251 80.7932Q735.203 80.7734 735.158 80.7489Q735.112 80.7245 735.069 80.6957Q735.026 80.6668 734.986 80.6339Q734.946 80.601 734.909 80.5643Q734.872 80.5277 734.839 80.4875Q734.806 80.4474 734.778 80.4043Q734.749 80.3612 734.724 80.3154Q734.7 80.2697 734.68 80.2217Q734.66 80.1738 734.645 80.1242Q734.63 80.0745 734.62 80.0237Q734.61 79.9728 734.605 79.9212Q734.6 79.8695 734.6 79.8176L734.6 79.6831Q734.6 79.6312 734.605 79.5796Q734.61 79.528 734.62 79.4771Q734.63 79.4262 734.645 79.3766Q734.66 79.3269 734.68 79.279Q734.7 79.2311 734.724 79.1853Q734.749 79.1396 734.778 79.0964Q734.806 79.0533 734.839 79.0132Q734.872 78.9731 734.909 78.9364Q734.946 78.8997 734.986 78.8668Q735.026 78.8339 735.069 78.8051Q735.112 78.7763 735.158 78.7518Q735.204 78.7274 735.251 78.7075Q735.299 78.6877 735.349 78.6726Q735.399 78.6576 735.45 78.6474Q735.501 78.6373 735.552 78.6322Q735.604 78.6271 735.656 78.6271Z" id="star" fill="#FFFFFF" fill-rule="evenodd" stroke="none" filter="url(#filter_1)" />
    <path d="M1279.47 505.46L1279.47 505.46Q1279.52 505.46 1279.58 505.47Q1279.63 505.48 1279.67 505.5Q1279.72 505.52 1279.77 505.549Q1279.81 505.578 1279.85 505.615Q1279.88 505.651 1279.91 505.695Q1279.94 505.738 1279.96 505.786Q1279.98 505.834 1279.99 505.885Q1280 505.936 1280 505.988L1280 506.056Q1280 506.108 1279.99 506.159Q1279.98 506.21 1279.96 506.258Q1279.94 506.306 1279.91 506.349Q1279.88 506.392 1279.85 506.429Q1279.81 506.466 1279.77 506.495Q1279.72 506.523 1279.67 506.543Q1279.63 506.563 1279.58 506.573Q1279.52 506.583 1279.47 506.583L1279.47 506.583Q1279.42 506.583 1279.37 506.573Q1279.32 506.563 1279.27 506.543Q1279.22 506.523 1279.18 506.495Q1279.13 506.466 1279.1 506.429Q1279.06 506.392 1279.03 506.349Q1279 506.306 1278.98 506.258Q1278.96 506.21 1278.95 506.159Q1278.94 506.108 1278.94 506.056L1278.94 505.988Q1278.94 505.936 1278.95 505.885Q1278.96 505.834 1278.98 505.786Q1279 505.738 1279.03 505.695Q1279.06 505.651 1279.1 505.615Q1279.13 505.578 1279.18 505.549Q1279.22 505.52 1279.27 505.5Q1279.32 505.48 1279.37 505.47Q1279.42 505.46 1279.47 505.46Z" id="star" fill="#FFFFFF" fill-opacity="0.49803922" fill-rule="evenodd" stroke="none" />
    <path d="M761.552 78.6271L761.553 78.6271Q761.605 78.6271 761.656 78.6373Q761.707 78.6474 761.755 78.6673Q761.803 78.6872 761.846 78.716Q761.89 78.7449 761.926 78.7816Q761.963 78.8184 761.992 78.8616Q762.021 78.9048 762.041 78.9528Q762.061 79.0008 762.071 79.0517Q762.081 79.1027 762.081 79.1546L762.081 79.2229Q762.081 79.2748 762.071 79.3258Q762.061 79.3767 762.041 79.4247Q762.021 79.4727 761.992 79.5159Q761.963 79.5591 761.926 79.5959Q761.89 79.6326 761.846 79.6615Q761.803 79.6903 761.755 79.7102Q761.707 79.7301 761.656 79.7402Q761.605 79.7504 761.553 79.7504L761.552 79.7504Q761.499 79.7504 761.449 79.7402Q761.398 79.7301 761.35 79.7102Q761.302 79.6903 761.258 79.6615Q761.215 79.6326 761.178 79.5959Q761.142 79.5591 761.113 79.5159Q761.084 79.4727 761.064 79.4247Q761.044 79.3767 761.034 79.3258Q761.024 79.2748 761.024 79.2229L761.024 79.1546Q761.024 79.1027 761.034 79.0517Q761.044 79.0008 761.064 78.9528Q761.084 78.9048 761.113 78.8616Q761.142 78.8184 761.178 78.7816Q761.215 78.7449 761.258 78.716Q761.302 78.6872 761.35 78.6673Q761.398 78.6474 761.448 78.6373Q761.499 78.6271 761.552 78.6271Z" id="star" fill="#FFFFFF" fill-opacity="0.49803922" fill-rule="evenodd" stroke="none" />
    <path d="M1163.2 33.6973L1163.21 33.6973Q1163.26 33.6973 1163.31 33.7075Q1163.36 33.7176 1163.41 33.7375Q1163.46 33.7574 1163.5 33.7862Q1163.54 33.8151 1163.58 33.8518Q1163.61 33.8886 1163.64 33.9318Q1163.67 33.975 1163.69 34.023Q1163.71 34.071 1163.72 34.1219Q1163.73 34.1729 1163.73 34.2249L1163.73 34.2931Q1163.73 34.345 1163.72 34.396Q1163.71 34.4469 1163.69 34.4949Q1163.67 34.5429 1163.64 34.5861Q1163.61 34.6293 1163.58 34.6661Q1163.54 34.7028 1163.5 34.7317Q1163.46 34.7606 1163.41 34.7804Q1163.36 34.8003 1163.31 34.8104Q1163.26 34.8206 1163.21 34.8206L1163.2 34.8206Q1163.15 34.8206 1163.1 34.8104Q1163.05 34.8003 1163 34.7804Q1162.95 34.7606 1162.91 34.7317Q1162.87 34.7028 1162.83 34.6661Q1162.79 34.6293 1162.76 34.5861Q1162.74 34.5429 1162.72 34.4949Q1162.7 34.4469 1162.69 34.396Q1162.68 34.345 1162.68 34.2931L1162.68 34.2249Q1162.68 34.1729 1162.69 34.1219Q1162.7 34.071 1162.72 34.023Q1162.74 33.975 1162.76 33.9318Q1162.79 33.8886 1162.83 33.8518Q1162.87 33.8151 1162.91 33.7862Q1162.95 33.7574 1163 33.7375Q1163.05 33.7176 1163.1 33.7075Q1163.15 33.6973 1163.2 33.6973Z" id="star" fill="#FFFFFF" fill-opacity="0.49803922" fill-rule="evenodd" stroke="none" />
    <path d="M1046.94 11.2325L1046.94 11.2325Q1046.99 11.2325 1047.04 11.2426Q1047.09 11.2527 1047.14 11.2726Q1047.19 11.2925 1047.23 11.3214Q1047.27 11.3502 1047.31 11.387Q1047.35 11.4237 1047.38 11.4669Q1047.4 11.5101 1047.42 11.5581Q1047.44 11.6061 1047.45 11.657Q1047.46 11.708 1047.46 11.76L1047.46 11.8282Q1047.46 11.8801 1047.45 11.9311Q1047.44 11.9821 1047.42 12.0301Q1047.4 12.0781 1047.38 12.1213Q1047.35 12.1645 1047.31 12.2012Q1047.27 12.2379 1047.23 12.2668Q1047.19 12.2957 1047.14 12.3155Q1047.09 12.3354 1047.04 12.3456Q1046.99 12.3557 1046.94 12.3557L1046.94 12.3557Q1046.88 12.3557 1046.83 12.3456Q1046.78 12.3354 1046.73 12.3155Q1046.69 12.2957 1046.64 12.2668Q1046.6 12.2379 1046.56 12.2012Q1046.53 12.1645 1046.5 12.1213Q1046.47 12.0781 1046.45 12.0301Q1046.43 11.9821 1046.42 11.9311Q1046.41 11.8801 1046.41 11.8282L1046.41 11.76Q1046.41 11.708 1046.42 11.657Q1046.43 11.6061 1046.45 11.5581Q1046.47 11.5101 1046.5 11.4669Q1046.53 11.4237 1046.56 11.387Q1046.6 11.3502 1046.64 11.3214Q1046.69 11.2925 1046.73 11.2726Q1046.78 11.2527 1046.83 11.2426Q1046.88 11.2325 1046.94 11.2325Z" id="star" fill="#FFFFFF" fill-opacity="0.49803922" fill-rule="evenodd" stroke="none" />
    <path d="M1057.51 33.6973L1057.51 33.6973Q1057.56 33.6973 1057.61 33.7075Q1057.66 33.7176 1057.71 33.7375Q1057.76 33.7574 1057.8 33.7862Q1057.84 33.8151 1057.88 33.8518Q1057.92 33.8886 1057.95 33.9318Q1057.97 33.975 1057.99 34.023Q1058.01 34.071 1058.02 34.1219Q1058.04 34.1729 1058.04 34.2249L1058.04 34.2931Q1058.04 34.345 1058.02 34.396Q1058.01 34.4469 1057.99 34.4949Q1057.97 34.5429 1057.95 34.5861Q1057.92 34.6293 1057.88 34.6661Q1057.84 34.7028 1057.8 34.7317Q1057.76 34.7606 1057.71 34.7804Q1057.66 34.8003 1057.61 34.8104Q1057.56 34.8206 1057.51 34.8206L1057.51 34.8206Q1057.45 34.8206 1057.4 34.8104Q1057.35 34.8003 1057.3 34.7804Q1057.26 34.7606 1057.21 34.7317Q1057.17 34.7028 1057.13 34.6661Q1057.1 34.6293 1057.07 34.5861Q1057.04 34.5429 1057.02 34.4949Q1057 34.4469 1056.99 34.396Q1056.98 34.345 1056.98 34.2931L1056.98 34.2249Q1056.98 34.1729 1056.99 34.1219Q1057 34.071 1057.02 34.023Q1057.04 33.975 1057.07 33.9318Q1057.1 33.8886 1057.13 33.8518Q1057.17 33.8151 1057.21 33.7862Q1057.26 33.7574 1057.3 33.7375Q1057.35 33.7176 1057.4 33.7075Q1057.45 33.6973 1057.51 33.6973Z" id="star" fill="#FFFFFF" fill-opacity="0.49803922" fill-rule="evenodd" stroke="none" />
    <path d="M1068.07 404.368L1068.08 404.368Q1068.13 404.368 1068.18 404.378Q1068.23 404.388 1068.28 404.408Q1068.33 404.428 1068.37 404.457Q1068.41 404.486 1068.45 404.523Q1068.49 404.559 1068.52 404.603Q1068.54 404.646 1068.56 404.694Q1068.58 404.742 1068.59 404.793Q1068.6 404.844 1068.6 404.896L1068.6 404.964Q1068.6 405.016 1068.59 405.067Q1068.58 405.118 1068.56 405.166Q1068.54 405.214 1068.52 405.257Q1068.49 405.3 1068.45 405.337Q1068.41 405.374 1068.37 405.402Q1068.33 405.431 1068.28 405.451Q1068.23 405.471 1068.18 405.481Q1068.13 405.491 1068.08 405.491L1068.07 405.491Q1068.02 405.491 1067.97 405.481Q1067.92 405.471 1067.87 405.451Q1067.82 405.431 1067.78 405.402Q1067.74 405.374 1067.7 405.337Q1067.66 405.3 1067.64 405.257Q1067.61 405.214 1067.59 405.166Q1067.57 405.118 1067.56 405.067Q1067.55 405.016 1067.55 404.964L1067.55 404.896Q1067.55 404.844 1067.56 404.793Q1067.57 404.742 1067.59 404.694Q1067.61 404.646 1067.64 404.603Q1067.66 404.559 1067.7 404.523Q1067.74 404.486 1067.78 404.457Q1067.82 404.428 1067.87 404.408Q1067.92 404.388 1067.97 404.378Q1068.02 404.368 1068.07 404.368Z" id="star" fill="#FFFFFF" fill-opacity="0.49803922" fill-rule="evenodd" stroke="none" />
    <path d="M1120.92 325.741L1120.93 325.741Q1120.98 325.741 1121.03 325.751Q1121.08 325.761 1121.13 325.781Q1121.18 325.801 1121.22 325.83Q1121.26 325.859 1121.3 325.896Q1121.34 325.932 1121.36 325.975Q1121.39 326.019 1121.41 326.067Q1121.43 326.115 1121.44 326.166Q1121.45 326.217 1121.45 326.269L1121.45 326.337Q1121.45 326.389 1121.44 326.44Q1121.43 326.491 1121.41 326.539Q1121.39 326.587 1121.36 326.63Q1121.34 326.673 1121.3 326.71Q1121.26 326.746 1121.22 326.775Q1121.18 326.804 1121.13 326.824Q1121.08 326.844 1121.03 326.854Q1120.98 326.864 1120.93 326.864L1120.92 326.864Q1120.87 326.864 1120.82 326.854Q1120.77 326.844 1120.72 326.824Q1120.67 326.804 1120.63 326.775Q1120.59 326.746 1120.55 326.71Q1120.51 326.673 1120.49 326.63Q1120.46 326.587 1120.44 326.539Q1120.42 326.491 1120.41 326.44Q1120.4 326.389 1120.4 326.337L1120.4 326.269Q1120.4 326.217 1120.41 326.166Q1120.42 326.115 1120.44 326.067Q1120.46 326.019 1120.49 325.975Q1120.51 325.932 1120.55 325.896Q1120.59 325.859 1120.63 325.83Q1120.67 325.801 1120.72 325.781Q1120.77 325.761 1120.82 325.751Q1120.87 325.741 1120.92 325.741Z" id="star" fill="#FFFFFF" fill-opacity="0.49803922" fill-rule="evenodd" stroke="none" />
    <path d="M1131.49 190.952L1131.5 190.952Q1131.55 190.952 1131.6 190.962Q1131.65 190.972 1131.7 190.992Q1131.75 191.012 1131.79 191.041Q1131.83 191.069 1131.87 191.106Q1131.91 191.143 1131.93 191.186Q1131.96 191.229 1131.98 191.277Q1132 191.325 1132.01 191.376Q1132.02 191.427 1132.02 191.479L1132.02 191.547Q1132.02 191.599 1132.01 191.65Q1132 191.701 1131.98 191.749Q1131.96 191.797 1131.93 191.84Q1131.91 191.884 1131.87 191.92Q1131.83 191.957 1131.79 191.986Q1131.75 192.015 1131.7 192.035Q1131.65 192.055 1131.6 192.065Q1131.55 192.075 1131.5 192.075L1131.49 192.075Q1131.44 192.075 1131.39 192.065Q1131.34 192.055 1131.29 192.035Q1131.24 192.015 1131.2 191.986Q1131.16 191.957 1131.12 191.92Q1131.08 191.884 1131.05 191.84Q1131.03 191.797 1131.01 191.749Q1130.99 191.701 1130.98 191.65Q1130.97 191.599 1130.97 191.547L1130.97 191.479Q1130.97 191.427 1130.98 191.376Q1130.99 191.325 1131.01 191.277Q1131.03 191.229 1131.05 191.186Q1131.08 191.143 1131.12 191.106Q1131.16 191.069 1131.2 191.041Q1131.24 191.012 1131.29 190.992Q1131.34 190.972 1131.39 190.962Q1131.44 190.952 1131.49 190.952Z" id="star" fill="#FFFFFF" fill-opacity="0.49803922" fill-rule="evenodd" stroke="none" />
    <path d="M994.087 146.022L994.089 146.022Q994.141 146.022 994.192 146.032Q994.242 146.042 994.29 146.062Q994.339 146.082 994.382 146.111Q994.425 146.14 994.462 146.176Q994.498 146.213 994.527 146.256Q994.556 146.299 994.576 146.347Q994.596 146.395 994.606 146.446Q994.616 146.497 994.616 146.549L994.616 146.618Q994.616 146.67 994.606 146.72Q994.596 146.771 994.576 146.819Q994.556 146.867 994.527 146.911Q994.498 146.954 994.462 146.991Q994.425 147.027 994.382 147.056Q994.338 147.085 994.29 147.105Q994.242 147.125 994.191 147.135Q994.141 147.145 994.089 147.145L994.087 147.145Q994.035 147.145 993.984 147.135Q993.933 147.125 993.885 147.105Q993.837 147.085 993.794 147.056Q993.75 147.027 993.714 146.991Q993.677 146.954 993.648 146.911Q993.619 146.867 993.599 146.819Q993.579 146.771 993.569 146.72Q993.559 146.67 993.559 146.618L993.559 146.549Q993.559 146.497 993.569 146.446Q993.579 146.395 993.599 146.347Q993.619 146.299 993.648 146.256Q993.677 146.213 993.714 146.176Q993.75 146.14 993.794 146.111Q993.837 146.082 993.885 146.062Q993.933 146.042 993.984 146.032Q994.035 146.022 994.087 146.022Z" id="star" fill="#FFFFFF" fill-opacity="0.49803922" fill-rule="evenodd" stroke="none" />
    <path d="M1279.47 651.482L1279.47 651.482Q1279.52 651.482 1279.58 651.492Q1279.63 651.502 1279.67 651.522Q1279.72 651.542 1279.77 651.571Q1279.81 651.6 1279.85 651.637Q1279.88 651.673 1279.91 651.716Q1279.94 651.76 1279.96 651.808Q1279.98 651.856 1279.99 651.907Q1280 651.958 1280 652.01L1280 652.078Q1280 652.13 1279.99 652.181Q1279.98 652.232 1279.96 652.28Q1279.94 652.328 1279.91 652.371Q1279.88 652.414 1279.85 652.451Q1279.81 652.487 1279.77 652.516Q1279.72 652.545 1279.67 652.565Q1279.63 652.585 1279.58 652.595Q1279.52 652.605 1279.47 652.605L1279.47 652.605Q1279.42 652.605 1279.37 652.595Q1279.32 652.585 1279.27 652.565Q1279.22 652.545 1279.18 652.516Q1279.13 652.487 1279.1 652.451Q1279.06 652.414 1279.03 652.371Q1279 652.328 1278.98 652.28Q1278.96 652.232 1278.95 652.181Q1278.94 652.13 1278.94 652.078L1278.94 652.01Q1278.94 651.958 1278.95 651.907Q1278.96 651.856 1278.98 651.808Q1279 651.76 1279.03 651.716Q1279.06 651.673 1279.1 651.636Q1279.13 651.6 1279.18 651.571Q1279.22 651.542 1279.27 651.522Q1279.32 651.502 1279.37 651.492Q1279.42 651.482 1279.47 651.482Z" id="star" fill="#FFFFFF" fill-opacity="0.49803922" fill-rule="evenodd" stroke="none" />
    <path d="M1279.47 505.46L1279.47 505.46Q1279.52 505.46 1279.58 505.47Q1279.63 505.48 1279.67 505.5Q1279.72 505.52 1279.77 505.549Q1279.81 505.578 1279.85 505.615Q1279.88 505.651 1279.91 505.695Q1279.94 505.738 1279.96 505.786Q1279.98 505.834 1279.99 505.885Q1280 505.936 1280 505.988L1280 506.056Q1280 506.108 1279.99 506.159Q1279.98 506.21 1279.96 506.258Q1279.94 506.306 1279.91 506.349Q1279.88 506.392 1279.85 506.429Q1279.81 506.466 1279.77 506.495Q1279.72 506.523 1279.67 506.543Q1279.63 506.563 1279.58 506.573Q1279.52 506.583 1279.47 506.583L1279.47 506.583Q1279.42 506.583 1279.37 506.573Q1279.32 506.563 1279.27 506.543Q1279.22 506.523 1279.18 506.495Q1279.13 506.466 1279.1 506.429Q1279.06 506.392 1279.03 506.349Q1279 506.306 1278.98 506.258Q1278.96 506.21 1278.95 506.159Q1278.94 506.108 1278.94 506.056L1278.94 505.988Q1278.94 505.936 1278.95 505.885Q1278.96 505.834 1278.98 505.786Q1279 505.738 1279.03 505.695Q1279.06 505.651 1279.1 505.615Q1279.13 505.578 1279.18 505.549Q1279.22 505.52 1279.27 505.5Q1279.32 505.48 1279.37 505.47Q1279.42 505.46 1279.47 505.46Z" id="star" fill="#FFFFFF" fill-opacity="0.49803922" fill-rule="evenodd" stroke="none" />
    <path d="M11.0973 505.46L11.0993 505.46Q11.1513 505.46 11.2022 505.47Q11.2532 505.48 11.3012 505.5Q11.3492 505.52 11.3924 505.549Q11.4356 505.578 11.4723 505.615Q11.509 505.651 11.5379 505.695Q11.5668 505.738 11.5866 505.786Q11.6065 505.834 11.6167 505.885Q11.6268 505.936 11.6268 505.988L11.6268 506.056Q11.6268 506.108 11.6167 506.159Q11.6065 506.21 11.5866 506.258Q11.5668 506.306 11.5379 506.349Q11.509 506.392 11.4723 506.429Q11.4356 506.466 11.3924 506.495Q11.3492 506.523 11.3012 506.543Q11.2532 506.563 11.2022 506.573Q11.1513 506.583 11.0993 506.583L11.0973 506.583Q11.0454 506.583 10.9944 506.573Q10.9434 506.563 10.8955 506.543Q10.8475 506.523 10.8043 506.495Q10.7611 506.466 10.7243 506.429Q10.6876 506.392 10.6587 506.349Q10.6299 506.306 10.61 506.258Q10.5901 506.21 10.58 506.159Q10.5698 506.108 10.5698 506.056L10.5698 505.988Q10.5698 505.936 10.58 505.885Q10.5901 505.834 10.61 505.786Q10.6299 505.738 10.6587 505.695Q10.6876 505.651 10.7243 505.615Q10.7611 505.578 10.8043 505.549Q10.8475 505.52 10.8955 505.5Q10.9434 505.48 10.9944 505.47Q11.0454 505.46 11.0973 505.46Z" id="star" fill="#FFFFFF" fill-opacity="0.49803922" fill-rule="evenodd" stroke="none" />
    <path d="M74.5158 370.671L74.5178 370.671Q74.5697 370.671 74.6207 370.681Q74.6716 370.691 74.7196 370.711Q74.7676 370.731 74.8108 370.76Q74.854 370.789 74.8908 370.825Q74.9275 370.862 74.9564 370.905Q74.9852 370.948 75.0051 370.996Q75.025 371.044 75.0351 371.095Q75.0453 371.146 75.0453 371.198L75.0453 371.267Q75.0453 371.319 75.0351 371.369Q75.025 371.42 75.0051 371.468Q74.9852 371.516 74.9564 371.56Q74.9275 371.603 74.8908 371.64Q74.854 371.676 74.8108 371.705Q74.7676 371.734 74.7196 371.754Q74.6716 371.774 74.6207 371.784Q74.5697 371.794 74.5178 371.794L74.5158 371.794Q74.4638 371.794 74.4129 371.784Q74.3619 371.774 74.3139 371.754Q74.2659 371.734 74.2227 371.705Q74.1795 371.676 74.1428 371.64Q74.106 371.603 74.0772 371.56Q74.0483 371.516 74.0284 371.468Q74.0086 371.42 73.9984 371.369Q73.9883 371.319 73.9883 371.267L73.9883 371.198Q73.9883 371.146 73.9984 371.095Q74.0086 371.044 74.0284 370.996Q74.0483 370.948 74.0772 370.905Q74.106 370.862 74.1428 370.825Q74.1795 370.789 74.2227 370.76Q74.2659 370.731 74.3139 370.711Q74.3619 370.691 74.4129 370.681Q74.4638 370.671 74.5158 370.671Z" id="star" fill="#FFFFFF" fill-opacity="0.49803922" fill-rule="evenodd" stroke="none" />
    <path d="M74.5158 718.877L74.5178 718.877Q74.5697 718.877 74.6207 718.887Q74.6716 718.897 74.7196 718.917Q74.7676 718.937 74.8108 718.966Q74.854 718.994 74.8908 719.031Q74.9275 719.068 74.9564 719.111Q74.9852 719.154 75.0051 719.202Q75.025 719.25 75.0351 719.301Q75.0453 719.352 75.0453 719.404L75.0453 719.473Q75.0453 719.524 75.0351 719.575Q75.025 719.626 75.0051 719.674Q74.9852 719.722 74.9564 719.765Q74.9275 719.809 74.8908 719.845Q74.854 719.882 74.8108 719.911Q74.7676 719.94 74.7196 719.96Q74.6716 719.98 74.6207 719.99Q74.5697 720 74.5178 720L74.5158 720Q74.4638 720 74.4129 719.99Q74.3619 719.98 74.3139 719.96Q74.2659 719.94 74.2227 719.911Q74.1795 719.882 74.1428 719.845Q74.106 719.809 74.0772 719.766Q74.0483 719.722 74.0284 719.674Q74.0086 719.626 73.9984 719.575Q73.9883 719.524 73.9883 719.473L73.9883 719.404Q73.9883 719.352 73.9984 719.301Q74.0086 719.25 74.0284 719.202Q74.0483 719.154 74.0772 719.111Q74.106 719.068 74.1428 719.031Q74.1795 718.994 74.2227 718.966Q74.2659 718.937 74.3139 718.917Q74.3619 718.897 74.4129 718.887Q74.4638 718.877 74.5158 718.877Z" id="star" fill="#FFFFFF" fill-opacity="0.49803922" fill-rule="evenodd" stroke="none" />
    <path d="M296.481 348.206L296.483 348.206Q296.535 348.206 296.586 348.216Q296.637 348.226 296.685 348.246Q296.733 348.266 296.776 348.295Q296.819 348.324 296.856 348.36Q296.893 348.397 296.922 348.44Q296.951 348.483 296.97 348.532Q296.99 348.579 297 348.63Q297.011 348.681 297.011 348.733L297.011 348.802Q297.011 348.854 297 348.905Q296.99 348.956 296.97 349.004Q296.951 349.052 296.922 349.095Q296.893 349.138 296.856 349.175Q296.819 349.211 296.776 349.24Q296.733 349.269 296.685 349.289Q296.637 349.309 296.586 349.319Q296.535 349.329 296.483 349.329L296.481 349.329Q296.429 349.329 296.378 349.319Q296.327 349.309 296.279 349.289Q296.231 349.269 296.188 349.24Q296.145 349.211 296.108 349.175Q296.071 349.138 296.043 349.095Q296.014 349.052 295.994 349.004Q295.974 348.956 295.964 348.905Q295.954 348.854 295.954 348.802L295.954 348.733Q295.954 348.681 295.964 348.63Q295.974 348.579 295.994 348.532Q296.014 348.483 296.043 348.44Q296.071 348.397 296.108 348.36Q296.145 348.324 296.188 348.295Q296.231 348.266 296.279 348.246Q296.327 348.226 296.378 348.216Q296.429 348.206 296.481 348.206Z" id="star" fill="#FFFFFF" fill-opacity="0.49803922" fill-rule="evenodd" stroke="none" />
    <path d="M476.168 0L476.17 0Q476.222 0 476.273 0.0101355Q476.323 0.0202711 476.371 0.0401526Q476.419 0.0600342 476.463 0.0888978Q476.506 0.117761 476.543 0.154498Q476.579 0.191234 476.608 0.234431Q476.637 0.277629 476.657 0.325627Q476.677 0.373625 476.687 0.42458Q476.697 0.475535 476.697 0.527488L476.697 0.595757Q476.697 0.64771 476.687 0.698665Q476.677 0.749619 476.657 0.797618Q476.637 0.845616 476.608 0.888813Q476.579 0.932011 476.543 0.968747Q476.506 1.00548 476.463 1.03435Q476.419 1.06321 476.371 1.08309Q476.323 1.10297 476.273 1.11311Q476.222 1.12324 476.17 1.12325L476.168 1.12325Q476.116 1.12324 476.065 1.11311Q476.014 1.10297 475.966 1.08309Q475.918 1.06321 475.875 1.03435Q475.831 1.00548 475.795 0.968747Q475.758 0.932011 475.729 0.888813Q475.7 0.845616 475.68 0.797618Q475.66 0.749619 475.65 0.698665Q475.64 0.64771 475.64 0.595757L475.64 0.527488Q475.64 0.475535 475.65 0.42458Q475.66 0.373626 475.68 0.325627Q475.7 0.277629 475.729 0.234431Q475.758 0.191234 475.795 0.154498Q475.831 0.117761 475.875 0.0888978Q475.918 0.0600342 475.966 0.0401526Q476.014 0.0202711 476.065 0.0101355Q476.116 0 476.168 0Z" id="star" fill="#FFFFFF" fill-opacity="0.49803922" fill-rule="evenodd" stroke="none" />
    <path d="M476.168 101.092L476.17 101.092Q476.222 101.092 476.273 101.102Q476.323 101.112 476.371 101.132Q476.419 101.152 476.463 101.181Q476.506 101.21 476.543 101.247Q476.579 101.283 476.608 101.326Q476.637 101.37 476.657 101.418Q476.677 101.466 476.687 101.517Q476.697 101.568 476.697 101.62L476.697 101.688Q476.697 101.74 476.687 101.791Q476.677 101.842 476.657 101.89Q476.637 101.938 476.608 101.981Q476.579 102.024 476.543 102.061Q476.506 102.098 476.463 102.126Q476.419 102.155 476.371 102.175Q476.323 102.195 476.273 102.205Q476.222 102.215 476.17 102.215L476.168 102.215Q476.116 102.215 476.065 102.205Q476.014 102.195 475.966 102.175Q475.918 102.155 475.875 102.126Q475.831 102.098 475.795 102.061Q475.758 102.024 475.729 101.981Q475.7 101.938 475.68 101.89Q475.66 101.842 475.65 101.791Q475.64 101.74 475.64 101.688L475.64 101.62Q475.64 101.568 475.65 101.517Q475.66 101.466 475.68 101.418Q475.7 101.37 475.729 101.326Q475.758 101.283 475.795 101.247Q475.831 101.21 475.875 101.181Q475.918 101.152 475.966 101.132Q476.014 101.112 476.065 101.102Q476.116 101.092 476.168 101.092Z" id="star" fill="#FFFFFF" fill-opacity="0.49803922" fill-rule="evenodd" stroke="none" />
    <path d="M53.3766 0L53.3786 0Q53.4306 0 53.4815 0.0101355Q53.5325 0.0202711 53.5805 0.0401526Q53.6285 0.0600342 53.6717 0.0888978Q53.7149 0.117761 53.7516 0.154498Q53.7883 0.191234 53.8172 0.234431Q53.8461 0.277629 53.866 0.325627Q53.8858 0.373625 53.896 0.42458Q53.9061 0.475535 53.9061 0.527488L53.9061 0.595757Q53.9061 0.64771 53.896 0.698665Q53.8858 0.749619 53.8659 0.797618Q53.8461 0.845616 53.8172 0.888813Q53.7883 0.932011 53.7516 0.968747Q53.7149 1.00548 53.6717 1.03435Q53.6285 1.06321 53.5805 1.08309Q53.5325 1.10297 53.4815 1.11311Q53.4306 1.12324 53.3786 1.12325L53.3766 1.12325Q53.3247 1.12324 53.2737 1.11311Q53.2227 1.10297 53.1747 1.08309Q53.1267 1.06321 53.0836 1.03435Q53.0404 1.00548 53.0036 0.968747Q52.9669 0.932011 52.938 0.888813Q52.9092 0.845616 52.8893 0.797618Q52.8694 0.749619 52.8593 0.698665Q52.8491 0.64771 52.8491 0.595757L52.8491 0.527488Q52.8491 0.475535 52.8593 0.42458Q52.8694 0.373626 52.8893 0.325627Q52.9092 0.277629 52.938 0.234431Q52.9669 0.191234 53.0036 0.154498Q53.0404 0.117761 53.0836 0.0888978Q53.1267 0.0600342 53.1747 0.0401526Q53.2227 0.0202711 53.2737 0.0101355Q53.3247 0 53.3766 0Z" id="star" fill="#FFFFFF" fill-opacity="0.49803922" fill-rule="evenodd" stroke="none" />
    <path d="M0.527489 281.935L0.529489 281.935Q0.581442 281.935 0.632397 281.945Q0.683352 281.955 0.73135 281.975Q0.779348 281.995 0.822546 282.023Q0.865743 282.052 0.90248 282.089Q0.939216 282.126 0.96808 282.169Q0.996943 282.212 1.01682 282.26Q1.03671 282.308 1.04684 282.359Q1.05698 282.41 1.05698 282.462L1.05698 282.53Q1.05698 282.582 1.04684 282.633Q1.03671 282.684 1.01682 282.732Q0.996943 282.78 0.96808 282.823Q0.939216 282.867 0.90248 282.903Q0.865743 282.94 0.822546 282.969Q0.779348 282.998 0.73135 283.018Q0.683352 283.037 0.632397 283.048Q0.581442 283.058 0.529489 283.058L0.527489 283.058Q0.475536 283.058 0.424581 283.048Q0.373626 283.037 0.325628 283.018Q0.277629 282.998 0.234432 282.969Q0.191234 282.94 0.154498 282.903Q0.117762 282.867 0.0888979 282.823Q0.0600343 282.78 0.0401527 282.732Q0.0202711 282.684 0.0101355 282.633Q0 282.582 0 282.53L0 282.462Q0 282.41 0.0101355 282.359Q0.0202711 282.308 0.0401527 282.26Q0.0600343 282.212 0.0888979 282.169Q0.117762 282.126 0.154498 282.089Q0.191234 282.052 0.234432 282.023Q0.277629 281.995 0.325628 281.975Q0.373626 281.955 0.424581 281.945Q0.475536 281.935 0.527489 281.935Z" id="star" fill="#FFFFFF" fill-opacity="0.49803922" fill-rule="evenodd" stroke="none" />
    <path d="M137.935 553.76L137.937 553.76Q137.989 553.76 138.04 553.77Q138.091 553.78 138.139 553.8Q138.187 553.82 138.23 553.849Q138.273 553.877 138.31 553.914Q138.346 553.951 138.375 553.994Q138.404 554.037 138.424 554.085Q138.444 554.133 138.454 554.184Q138.464 554.235 138.464 554.287L138.464 554.356Q138.464 554.407 138.454 554.458Q138.444 554.509 138.424 554.557Q138.404 554.605 138.375 554.648Q138.346 554.692 138.31 554.729Q138.273 554.765 138.23 554.794Q138.187 554.823 138.139 554.843Q138.091 554.863 138.04 554.873Q137.989 554.883 137.937 554.883L137.935 554.883Q137.883 554.883 137.832 554.873Q137.781 554.863 137.733 554.843Q137.685 554.823 137.642 554.794Q137.598 554.765 137.562 554.728Q137.525 554.692 137.496 554.648Q137.467 554.605 137.447 554.557Q137.427 554.509 137.417 554.458Q137.407 554.407 137.407 554.356L137.407 554.287Q137.407 554.235 137.417 554.184Q137.427 554.133 137.447 554.085Q137.467 554.037 137.496 553.994Q137.525 553.951 137.562 553.914Q137.598 553.878 137.642 553.849Q137.685 553.82 137.733 553.8Q137.781 553.78 137.832 553.77Q137.883 553.76 137.935 553.76Z" id="star" fill="#FFFFFF" fill-opacity="0.49803922" fill-rule="evenodd" stroke="none" />
    <path d="M378.697 584.504L378.698 584.506Q378.714 584.555 378.72 584.607Q378.726 584.658 378.722 584.71Q378.718 584.762 378.704 584.812Q378.69 584.862 378.666 584.908Q378.643 584.954 378.61 584.995Q378.578 585.036 378.539 585.07Q378.499 585.103 378.454 585.129Q378.409 585.154 378.359 585.17L378.294 585.191Q378.245 585.207 378.193 585.213Q378.142 585.22 378.09 585.215Q378.038 585.211 377.988 585.197Q377.938 585.183 377.892 585.16Q377.845 585.136 377.805 585.104Q377.764 585.072 377.73 585.032Q377.696 584.993 377.671 584.947Q377.646 584.902 377.63 584.853L377.629 584.851Q377.613 584.801 377.607 584.75Q377.601 584.698 377.605 584.646Q377.609 584.594 377.623 584.544Q377.637 584.494 377.661 584.448Q377.684 584.402 377.716 584.361Q377.748 584.32 377.788 584.287Q377.827 584.253 377.873 584.227Q377.918 584.202 377.968 584.186L378.033 584.165Q378.082 584.149 378.134 584.143Q378.185 584.137 378.237 584.141Q378.289 584.145 378.339 584.159Q378.389 584.173 378.435 584.197Q378.481 584.22 378.522 584.252Q378.563 584.285 378.597 584.324Q378.63 584.364 378.656 584.409Q378.681 584.454 378.697 584.504Z" id="star-14" fill="#FFFFFF" fill-opacity="0.49803922" fill-rule="evenodd" stroke="none" />
    <path d="M525.607 603.012L525.608 603.014Q525.624 603.064 525.63 603.115Q525.636 603.167 525.632 603.219Q525.628 603.27 525.613 603.32Q525.599 603.37 525.576 603.417Q525.552 603.463 525.52 603.504Q525.488 603.545 525.448 603.578Q525.409 603.612 525.364 603.638Q525.318 603.663 525.269 603.679L525.204 603.7Q525.154 603.716 525.103 603.722Q525.051 603.728 524.999 603.724Q524.948 603.72 524.898 603.706Q524.848 603.692 524.801 603.668Q524.755 603.645 524.714 603.613Q524.674 603.58 524.64 603.541Q524.606 603.501 524.581 603.456Q524.555 603.411 524.539 603.361L524.539 603.36Q524.523 603.31 524.516 603.258Q524.51 603.207 524.514 603.155Q524.518 603.103 524.533 603.053Q524.547 603.003 524.57 602.957Q524.594 602.911 524.626 602.87Q524.658 602.829 524.698 602.795Q524.737 602.762 524.782 602.736Q524.828 602.711 524.877 602.695L524.942 602.674Q524.992 602.658 525.043 602.652Q525.095 602.646 525.147 602.65Q525.198 602.654 525.248 602.668Q525.298 602.682 525.345 602.705Q525.391 602.729 525.432 602.761Q525.473 602.793 525.506 602.833Q525.54 602.872 525.565 602.918Q525.591 602.963 525.607 603.012Z" id="star-15" fill="#FFFFFF" fill-opacity="0.49803922" fill-rule="evenodd" stroke="none" />
    <path d="M371.031 719.479L371.032 719.481Q371.048 719.53 371.054 719.582Q371.06 719.633 371.056 719.685Q371.052 719.737 371.038 719.787Q371.024 719.837 371 719.883Q370.977 719.929 370.944 719.97Q370.912 720.011 370.873 720.045Q370.833 720.079 370.788 720.104Q370.743 720.129 370.693 720.145L370.628 720.166Q370.579 720.182 370.527 720.189Q370.476 720.195 370.424 720.191Q370.372 720.187 370.322 720.172Q370.272 720.158 370.226 720.135Q370.179 720.111 370.139 720.079Q370.098 720.047 370.064 720.007Q370.03 719.968 370.005 719.922Q369.98 719.877 369.964 719.828L369.963 719.826Q369.947 719.776 369.941 719.725Q369.935 719.673 369.939 719.621Q369.943 719.57 369.957 719.52Q369.971 719.47 369.995 719.423Q370.018 719.377 370.05 719.336Q370.083 719.295 370.122 719.262Q370.162 719.228 370.207 719.203Q370.252 719.177 370.302 719.161L370.367 719.14Q370.416 719.124 370.467 719.118Q370.519 719.112 370.571 719.116Q370.623 719.12 370.673 719.134Q370.723 719.148 370.769 719.172Q370.815 719.195 370.856 719.227Q370.897 719.26 370.931 719.299Q370.964 719.339 370.99 719.384Q371.015 719.429 371.031 719.479Z" id="star-16" fill="#FFFFFF" fill-opacity="0.49803922" fill-rule="evenodd" stroke="none" />
    <path d="M883.632 235.881L883.634 235.881Q883.686 235.881 883.738 235.887Q883.789 235.892 883.84 235.902Q883.891 235.912 883.941 235.927Q883.99 235.942 884.038 235.962Q884.086 235.982 884.132 236.006Q884.178 236.031 884.221 236.059Q884.264 236.088 884.304 236.121Q884.344 236.154 884.381 236.191Q884.418 236.227 884.451 236.268Q884.483 236.308 884.512 236.351Q884.541 236.394 884.565 236.44Q884.59 236.485 884.61 236.533Q884.63 236.581 884.645 236.631Q884.66 236.681 884.67 236.731Q884.68 236.782 884.685 236.834Q884.69 236.886 884.69 236.937L884.69 237.072Q884.69 237.124 884.685 237.175Q884.68 237.227 884.67 237.278Q884.66 237.329 884.645 237.379Q884.63 237.428 884.61 237.476Q884.59 237.524 884.565 237.57Q884.541 237.616 884.512 237.659Q884.483 237.702 884.451 237.742Q884.418 237.782 884.381 237.819Q884.344 237.855 884.304 237.888Q884.264 237.921 884.221 237.95Q884.178 237.979 884.132 238.003Q884.086 238.028 884.038 238.048Q883.99 238.067 883.941 238.082Q883.891 238.098 883.84 238.108Q883.789 238.118 883.738 238.123Q883.686 238.128 883.634 238.128L883.632 238.128Q883.58 238.128 883.529 238.123Q883.477 238.118 883.426 238.108Q883.375 238.098 883.326 238.082Q883.276 238.067 883.228 238.048Q883.18 238.028 883.134 238.003Q883.089 237.979 883.045 237.95Q883.002 237.921 882.962 237.888Q882.922 237.855 882.885 237.819Q882.849 237.782 882.816 237.742Q882.783 237.702 882.754 237.659Q882.725 237.615 882.701 237.57Q882.677 237.524 882.657 237.476Q882.637 237.428 882.622 237.378Q882.607 237.329 882.596 237.278Q882.586 237.227 882.581 237.175Q882.576 237.124 882.576 237.072L882.576 236.937Q882.576 236.886 882.581 236.834Q882.586 236.782 882.597 236.731Q882.607 236.681 882.622 236.631Q882.637 236.581 882.657 236.533Q882.677 236.485 882.701 236.44Q882.725 236.394 882.754 236.351Q882.783 236.308 882.816 236.268Q882.849 236.227 882.885 236.191Q882.922 236.154 882.962 236.121Q883.002 236.088 883.045 236.059Q883.089 236.031 883.134 236.006Q883.18 235.982 883.228 235.962Q883.276 235.942 883.326 235.927Q883.375 235.912 883.426 235.902Q883.477 235.892 883.529 235.887Q883.58 235.881 883.632 235.881Z" id="star" fill="#FFFFFF" fill-rule="evenodd" stroke="none" filter="url(#filter_1)" />
    <path d="M201.056 600L201.058 600Q201.11 600 201.162 600.005Q201.213 600.01 201.264 600.02Q201.315 600.031 201.365 600.046Q201.414 600.061 201.462 600.08Q201.51 600.1 201.556 600.125Q201.602 600.149 201.645 600.178Q201.688 600.207 201.728 600.24Q201.768 600.273 201.805 600.309Q201.841 600.346 201.874 600.386Q201.907 600.426 201.936 600.469Q201.965 600.512 201.989 600.558Q202.014 600.604 202.034 600.652Q202.053 600.7 202.069 600.749Q202.084 600.799 202.094 600.85Q202.104 600.901 202.109 600.953Q202.114 601.004 202.114 601.056L202.114 601.191Q202.114 601.243 202.109 601.294Q202.104 601.346 202.094 601.397Q202.084 601.448 202.069 601.497Q202.053 601.547 202.034 601.595Q202.014 601.643 201.989 601.688Q201.965 601.734 201.936 601.777Q201.907 601.82 201.874 601.861Q201.841 601.901 201.805 601.937Q201.768 601.974 201.728 602.007Q201.688 602.04 201.645 602.069Q201.602 602.097 201.556 602.122Q201.51 602.146 201.462 602.166Q201.414 602.186 201.365 602.201Q201.315 602.216 201.264 602.226Q201.213 602.236 201.162 602.242Q201.11 602.247 201.058 602.247L201.056 602.247Q201.004 602.247 200.952 602.242Q200.901 602.236 200.85 602.226Q200.799 602.216 200.749 602.201Q200.7 602.186 200.652 602.166Q200.604 602.146 200.558 602.122Q200.512 602.097 200.469 602.069Q200.426 602.04 200.386 602.007Q200.346 601.974 200.309 601.937Q200.273 601.901 200.24 601.861Q200.207 601.82 200.178 601.777Q200.149 601.734 200.125 601.688Q200.1 601.643 200.08 601.595Q200.061 601.547 200.045 601.497Q200.03 601.448 200.02 601.397Q200.01 601.346 200.005 601.294Q200 601.243 200 601.191L200 601.056Q200 601.004 200.005 600.953Q200.01 600.901 200.02 600.85Q200.03 600.799 200.045 600.749Q200.061 600.7 200.08 600.652Q200.1 600.604 200.125 600.558Q200.149 600.512 200.178 600.469Q200.207 600.426 200.24 600.386Q200.273 600.346 200.309 600.309Q200.346 600.273 200.386 600.24Q200.426 600.207 200.469 600.178Q200.512 600.149 200.558 600.125Q200.604 600.1 200.652 600.08Q200.7 600.061 200.749 600.045Q200.799 600.031 200.85 600.02Q200.901 600.01 200.952 600.005Q201.004 600 201.056 600Z" id="star-3" fill="#FFFFFF" fill-rule="evenodd" stroke="none" filter="url(#filter_1)" />
    <path d="M797.056 426L797.058 426Q797.11 426 797.162 426.005Q797.213 426.01 797.264 426.02Q797.315 426.03 797.365 426.046Q797.414 426.061 797.462 426.08Q797.51 426.1 797.556 426.125Q797.602 426.149 797.645 426.178Q797.688 426.207 797.728 426.24Q797.768 426.273 797.805 426.309Q797.841 426.346 797.874 426.386Q797.907 426.426 797.936 426.469Q797.965 426.512 797.989 426.558Q798.014 426.604 798.034 426.652Q798.053 426.7 798.069 426.75Q798.084 426.799 798.094 426.85Q798.104 426.901 798.109 426.953Q798.114 427.004 798.114 427.056L798.114 427.191Q798.114 427.242 798.109 427.294Q798.104 427.346 798.094 427.397Q798.084 427.447 798.068 427.497Q798.053 427.547 798.034 427.595Q798.014 427.643 797.989 427.688Q797.965 427.734 797.936 427.777Q797.907 427.82 797.874 427.86Q797.841 427.901 797.805 427.937Q797.768 427.974 797.728 428.007Q797.688 428.04 797.645 428.069Q797.602 428.097 797.556 428.122Q797.51 428.146 797.462 428.166Q797.414 428.186 797.365 428.201Q797.315 428.216 797.264 428.226Q797.213 428.236 797.162 428.241Q797.11 428.247 797.058 428.247L797.056 428.247Q797.004 428.247 796.953 428.241Q796.901 428.236 796.85 428.226Q796.799 428.216 796.749 428.201Q796.7 428.186 796.652 428.166Q796.604 428.146 796.558 428.122Q796.513 428.097 796.469 428.069Q796.426 428.04 796.386 428.007Q796.346 427.974 796.309 427.937Q796.273 427.901 796.24 427.86Q796.207 427.82 796.178 427.777Q796.149 427.734 796.125 427.688Q796.1 427.643 796.08 427.595Q796.061 427.547 796.046 427.497Q796.031 427.447 796.02 427.397Q796.01 427.346 796.005 427.294Q796 427.242 796 427.191L796 427.056Q796 427.004 796.005 426.953Q796.01 426.901 796.02 426.85Q796.031 426.799 796.046 426.749Q796.061 426.7 796.08 426.652Q796.1 426.604 796.125 426.558Q796.149 426.513 796.178 426.469Q796.207 426.426 796.24 426.386Q796.273 426.346 796.309 426.309Q796.346 426.273 796.386 426.24Q796.426 426.207 796.469 426.178Q796.513 426.149 796.558 426.125Q796.604 426.1 796.652 426.08Q796.7 426.061 796.749 426.046Q796.799 426.03 796.85 426.02Q796.901 426.01 796.953 426.005Q797.004 426 797.056 426Z" id="star-2" fill="#FFFFFF" fill-rule="evenodd" stroke="none" filter="url(#filter_1)" />
    <path d="M164.888 266.209L164.89 266.209Q164.941 266.209 164.993 266.214Q165.045 266.219 165.096 266.229Q165.146 266.239 165.196 266.255Q165.246 266.27 165.294 266.289Q165.342 266.309 165.387 266.334Q165.433 266.358 165.476 266.387Q165.519 266.416 165.559 266.449Q165.6 266.482 165.636 266.518Q165.673 266.555 165.706 266.595Q165.739 266.635 165.768 266.678Q165.796 266.721 165.821 266.767Q165.845 266.813 165.865 266.861Q165.885 266.909 165.9 266.958Q165.915 267.008 165.925 267.059Q165.935 267.11 165.94 267.162Q165.946 267.213 165.946 267.265L165.946 267.4Q165.946 267.451 165.94 267.503Q165.935 267.555 165.925 267.606Q165.915 267.656 165.9 267.706Q165.885 267.756 165.865 267.804Q165.845 267.852 165.821 267.897Q165.796 267.943 165.768 267.986Q165.739 268.029 165.706 268.069Q165.673 268.11 165.636 268.146Q165.6 268.183 165.559 268.216Q165.519 268.249 165.476 268.278Q165.433 268.306 165.387 268.331Q165.342 268.355 165.294 268.375Q165.246 268.395 165.196 268.41Q165.146 268.425 165.096 268.435Q165.045 268.445 164.993 268.45Q164.941 268.456 164.89 268.456L164.888 268.456Q164.836 268.456 164.784 268.45Q164.732 268.445 164.682 268.435Q164.631 268.425 164.581 268.41Q164.531 268.395 164.483 268.375Q164.435 268.355 164.39 268.331Q164.344 268.306 164.301 268.278Q164.258 268.249 164.218 268.216Q164.178 268.183 164.141 268.146Q164.104 268.11 164.071 268.069Q164.038 268.029 164.01 267.986Q163.981 267.943 163.956 267.897Q163.932 267.852 163.912 267.804Q163.892 267.756 163.877 267.706Q163.862 267.656 163.852 267.606Q163.842 267.555 163.837 267.503Q163.832 267.451 163.832 267.4L163.832 267.265Q163.832 267.213 163.837 267.162Q163.842 267.11 163.852 267.059Q163.862 267.008 163.877 266.958Q163.892 266.909 163.912 266.861Q163.932 266.813 163.956 266.767Q163.981 266.721 164.01 266.678Q164.038 266.635 164.071 266.595Q164.104 266.555 164.141 266.518Q164.178 266.482 164.218 266.449Q164.258 266.416 164.301 266.387Q164.344 266.358 164.39 266.334Q164.435 266.309 164.483 266.289Q164.531 266.27 164.581 266.255Q164.631 266.239 164.682 266.229Q164.732 266.219 164.784 266.214Q164.836 266.209 164.888 266.209Z" id="star" fill="#FFFFFF" fill-rule="evenodd" stroke="none" filter="url(#filter_1)" />
    <path d="M1221.87 370.671L1221.87 370.671Q1221.92 370.671 1221.97 370.676Q1222.02 370.681 1222.07 370.691Q1222.12 370.701 1222.17 370.716Q1222.22 370.731 1222.27 370.751Q1222.32 370.771 1222.36 370.796Q1222.41 370.82 1222.45 370.849Q1222.5 370.878 1222.54 370.911Q1222.58 370.943 1222.61 370.98Q1222.65 371.017 1222.68 371.057Q1222.72 371.097 1222.75 371.14Q1222.77 371.183 1222.8 371.229Q1222.82 371.275 1222.84 371.323Q1222.86 371.371 1222.88 371.42Q1222.89 371.47 1222.9 371.521Q1222.91 371.572 1222.92 371.623Q1222.92 371.675 1222.92 371.727L1222.92 371.861Q1222.92 371.913 1222.92 371.965Q1222.91 372.016 1222.9 372.067Q1222.89 372.118 1222.88 372.168Q1222.86 372.218 1222.84 372.265Q1222.82 372.313 1222.8 372.359Q1222.77 372.405 1222.75 372.448Q1222.72 372.491 1222.68 372.531Q1222.65 372.571 1222.61 372.608Q1222.58 372.645 1222.54 372.678Q1222.5 372.71 1222.45 372.739Q1222.41 372.768 1222.36 372.793Q1222.32 372.817 1222.27 372.837Q1222.22 372.857 1222.17 372.872Q1222.12 372.887 1222.07 372.897Q1222.02 372.907 1221.97 372.912Q1221.92 372.917 1221.87 372.917L1221.87 372.917Q1221.81 372.917 1221.76 372.912Q1221.71 372.907 1221.66 372.897Q1221.61 372.887 1221.56 372.872Q1221.51 372.857 1221.46 372.837Q1221.41 372.817 1221.37 372.793Q1221.32 372.768 1221.28 372.739Q1221.24 372.71 1221.2 372.678Q1221.16 372.645 1221.12 372.608Q1221.08 372.571 1221.05 372.531Q1221.02 372.491 1220.99 372.448Q1220.96 372.405 1220.93 372.359Q1220.91 372.313 1220.89 372.265Q1220.87 372.217 1220.85 372.168Q1220.84 372.118 1220.83 372.067Q1220.82 372.016 1220.81 371.965Q1220.81 371.913 1220.81 371.861L1220.81 371.727Q1220.81 371.675 1220.81 371.623Q1220.82 371.572 1220.83 371.521Q1220.84 371.47 1220.85 371.42Q1220.87 371.371 1220.89 371.323Q1220.91 371.275 1220.93 371.229Q1220.96 371.183 1220.99 371.14Q1221.02 371.097 1221.05 371.057Q1221.08 371.017 1221.12 370.98Q1221.16 370.943 1221.2 370.911Q1221.24 370.878 1221.28 370.849Q1221.32 370.82 1221.37 370.795Q1221.41 370.771 1221.46 370.751Q1221.51 370.731 1221.56 370.716Q1221.61 370.701 1221.66 370.691Q1221.71 370.681 1221.76 370.676Q1221.81 370.671 1221.87 370.671Z" id="star" fill="#FFFFFF" fill-opacity="0.6117647" fill-rule="evenodd" stroke="none" filter="url(#filter_2)" />
    <path d="M571.228 347.377L571.23 347.377Q571.282 347.377 571.333 347.387Q571.384 347.397 571.432 347.417Q571.48 347.437 571.523 347.466Q571.566 347.495 571.603 347.531Q571.639 347.568 571.668 347.611Q571.697 347.654 571.717 347.702Q571.737 347.75 571.747 347.801Q571.757 347.852 571.757 347.904L571.757 347.973Q571.757 348.025 571.747 348.075Q571.737 348.126 571.717 348.174Q571.697 348.222 571.668 348.266Q571.639 348.309 571.603 348.346Q571.566 348.382 571.523 348.411Q571.48 348.44 571.432 348.46Q571.384 348.48 571.333 348.49Q571.282 348.5 571.23 348.5L571.228 348.5Q571.176 348.5 571.125 348.49Q571.074 348.48 571.026 348.46Q570.978 348.44 570.935 348.411Q570.891 348.382 570.855 348.346Q570.818 348.309 570.789 348.266Q570.76 348.222 570.74 348.174Q570.72 348.126 570.71 348.075Q570.7 348.025 570.7 347.973L570.7 347.904Q570.7 347.852 570.71 347.801Q570.72 347.75 570.74 347.702Q570.76 347.654 570.789 347.611Q570.818 347.568 570.855 347.531Q570.891 347.495 570.935 347.466Q570.978 347.437 571.026 347.417Q571.074 347.397 571.125 347.387Q571.176 347.377 571.228 347.377Z" id="star-4" fill="#FFFFFF" fill-opacity="0.49803922" fill-rule="evenodd" stroke="none" />
    <path d="M454.228 324.377L454.23 324.377Q454.282 324.377 454.333 324.387Q454.384 324.397 454.432 324.417Q454.48 324.437 454.523 324.466Q454.566 324.495 454.603 324.531Q454.639 324.568 454.668 324.611Q454.697 324.654 454.717 324.702Q454.737 324.75 454.747 324.801Q454.757 324.852 454.757 324.904L454.757 324.973Q454.757 325.024 454.747 325.075Q454.737 325.126 454.717 325.174Q454.697 325.222 454.668 325.266Q454.639 325.309 454.603 325.346Q454.566 325.382 454.523 325.411Q454.48 325.44 454.432 325.46Q454.384 325.48 454.333 325.49Q454.282 325.5 454.23 325.5L454.228 325.5Q454.176 325.5 454.125 325.49Q454.074 325.48 454.026 325.46Q453.978 325.44 453.935 325.411Q453.891 325.382 453.855 325.346Q453.818 325.309 453.789 325.266Q453.76 325.222 453.74 325.174Q453.72 325.126 453.71 325.075Q453.7 325.024 453.7 324.973L453.7 324.904Q453.7 324.852 453.71 324.801Q453.72 324.75 453.74 324.702Q453.76 324.654 453.789 324.611Q453.818 324.568 453.855 324.531Q453.891 324.495 453.935 324.466Q453.978 324.437 454.026 324.417Q454.074 324.397 454.125 324.387Q454.176 324.377 454.228 324.377Z" id="star-5" fill="#FFFFFF" fill-opacity="0.49803922" fill-rule="evenodd" stroke="none" />
    <path d="M465.228 347.377L465.23 347.377Q465.282 347.377 465.333 347.387Q465.384 347.397 465.432 347.417Q465.48 347.437 465.523 347.466Q465.566 347.495 465.603 347.531Q465.639 347.568 465.668 347.611Q465.697 347.654 465.717 347.702Q465.737 347.75 465.747 347.801Q465.757 347.852 465.757 347.904L465.757 347.973Q465.757 348.025 465.747 348.075Q465.737 348.126 465.717 348.174Q465.697 348.222 465.668 348.266Q465.639 348.309 465.603 348.346Q465.566 348.382 465.523 348.411Q465.48 348.44 465.432 348.46Q465.384 348.48 465.333 348.49Q465.282 348.5 465.23 348.5L465.228 348.5Q465.176 348.5 465.125 348.49Q465.074 348.48 465.026 348.46Q464.978 348.44 464.935 348.411Q464.891 348.382 464.855 348.346Q464.818 348.309 464.789 348.266Q464.76 348.222 464.74 348.174Q464.72 348.126 464.71 348.075Q464.7 348.025 464.7 347.973L464.7 347.904Q464.7 347.852 464.71 347.801Q464.72 347.75 464.74 347.702Q464.76 347.654 464.789 347.611Q464.818 347.568 464.855 347.531Q464.891 347.495 464.935 347.466Q464.978 347.437 465.026 347.417Q465.074 347.397 465.125 347.387Q465.176 347.377 465.228 347.377Z" id="star-6" fill="#FFFFFF" fill-opacity="0.49803922" fill-rule="evenodd" stroke="none" />
    <path d="M539.228 455.377L539.23 455.377Q539.282 455.377 539.333 455.387Q539.384 455.397 539.432 455.417Q539.48 455.437 539.523 455.466Q539.566 455.495 539.603 455.531Q539.639 455.568 539.668 455.611Q539.697 455.654 539.717 455.702Q539.737 455.75 539.747 455.801Q539.757 455.852 539.757 455.904L539.757 455.973Q539.757 456.025 539.747 456.075Q539.737 456.126 539.717 456.174Q539.697 456.222 539.668 456.266Q539.639 456.309 539.603 456.346Q539.566 456.382 539.523 456.411Q539.48 456.44 539.432 456.46Q539.384 456.48 539.333 456.49Q539.282 456.5 539.23 456.5L539.228 456.5Q539.176 456.5 539.125 456.49Q539.074 456.48 539.026 456.46Q538.978 456.44 538.935 456.411Q538.891 456.382 538.855 456.346Q538.818 456.309 538.789 456.266Q538.76 456.222 538.74 456.174Q538.72 456.126 538.71 456.075Q538.7 456.025 538.7 455.973L538.7 455.904Q538.7 455.852 538.71 455.801Q538.72 455.75 538.74 455.702Q538.76 455.654 538.789 455.611Q538.818 455.568 538.855 455.531Q538.891 455.495 538.935 455.466Q538.978 455.437 539.026 455.417Q539.074 455.397 539.125 455.387Q539.176 455.377 539.228 455.377Z" id="star-7" fill="#FFFFFF" fill-opacity="0.49803922" fill-rule="evenodd" stroke="none" />
    <path d="M402.228 459.377L402.23 459.377Q402.282 459.377 402.333 459.387Q402.384 459.397 402.432 459.417Q402.48 459.437 402.523 459.466Q402.566 459.495 402.603 459.531Q402.639 459.568 402.668 459.611Q402.697 459.654 402.717 459.702Q402.737 459.75 402.747 459.801Q402.757 459.852 402.757 459.904L402.757 459.973Q402.757 460.025 402.747 460.075Q402.737 460.126 402.717 460.174Q402.697 460.222 402.668 460.266Q402.639 460.309 402.603 460.346Q402.566 460.382 402.523 460.411Q402.48 460.44 402.432 460.46Q402.384 460.48 402.333 460.49Q402.282 460.5 402.23 460.5L402.228 460.5Q402.176 460.5 402.125 460.49Q402.074 460.48 402.026 460.46Q401.978 460.44 401.935 460.411Q401.892 460.382 401.855 460.346Q401.818 460.309 401.789 460.266Q401.76 460.222 401.74 460.174Q401.72 460.126 401.71 460.075Q401.7 460.025 401.7 459.973L401.7 459.904Q401.7 459.852 401.71 459.801Q401.72 459.75 401.74 459.702Q401.76 459.654 401.789 459.611Q401.818 459.568 401.855 459.531Q401.891 459.495 401.935 459.466Q401.978 459.437 402.026 459.417Q402.074 459.397 402.125 459.387Q402.176 459.377 402.228 459.377Z" id="star-8" fill="#FFFFFF" fill-opacity="0.49803922" fill-rule="evenodd" stroke="none" />
    <path d="M739.693 423.993L739.692 423.995Q739.681 424.046 739.659 424.093Q739.638 424.14 739.608 424.183Q739.578 424.225 739.54 424.26Q739.502 424.296 739.458 424.324Q739.414 424.351 739.365 424.37Q739.317 424.388 739.265 424.397Q739.214 424.405 739.162 424.404Q739.11 424.402 739.06 424.39L738.993 424.375Q738.943 424.363 738.895 424.342Q738.848 424.321 738.806 424.29Q738.763 424.26 738.728 424.222Q738.692 424.185 738.665 424.141Q738.637 424.096 738.619 424.048Q738.6 423.999 738.592 423.948Q738.583 423.897 738.585 423.845Q738.586 423.793 738.598 423.742L738.598 423.74Q738.61 423.69 738.631 423.642Q738.653 423.595 738.683 423.553Q738.713 423.51 738.751 423.475Q738.789 423.439 738.833 423.412Q738.877 423.384 738.926 423.366Q738.974 423.347 739.025 423.339Q739.077 423.33 739.129 423.332Q739.18 423.333 739.231 423.345L739.298 423.36Q739.348 423.372 739.396 423.393Q739.443 423.415 739.485 423.445Q739.528 423.475 739.563 423.513Q739.599 423.551 739.626 423.595Q739.654 423.639 739.672 423.687Q739.691 423.736 739.699 423.787Q739.708 423.839 739.706 423.89Q739.705 423.942 739.693 423.993Z" id="star-9" fill="#FFFFFF" fill-opacity="0.49803922" fill-rule="evenodd" stroke="none" />
    <path d="M788.423 315.166L788.422 315.168Q788.411 315.218 788.389 315.266Q788.368 315.313 788.338 315.355Q788.308 315.398 788.27 315.433Q788.232 315.469 788.188 315.497Q788.144 315.524 788.095 315.542Q788.047 315.561 787.995 315.569Q787.944 315.578 787.892 315.576Q787.84 315.575 787.79 315.563L787.723 315.548Q787.673 315.536 787.625 315.515Q787.578 315.493 787.536 315.463Q787.493 315.433 787.458 315.395Q787.422 315.357 787.395 315.313Q787.367 315.269 787.349 315.221Q787.33 315.172 787.322 315.121Q787.313 315.07 787.315 315.018Q787.316 314.966 787.328 314.915L787.328 314.913Q787.34 314.863 787.361 314.815Q787.383 314.768 787.413 314.725Q787.443 314.683 787.481 314.648Q787.519 314.612 787.563 314.585Q787.607 314.557 787.656 314.539Q787.704 314.52 787.755 314.512Q787.807 314.503 787.859 314.505Q787.91 314.506 787.961 314.518L788.028 314.533Q788.078 314.545 788.126 314.566Q788.173 314.588 788.215 314.618Q788.258 314.648 788.293 314.686Q788.329 314.724 788.356 314.768Q788.384 314.812 788.402 314.86Q788.421 314.909 788.429 314.96Q788.438 315.011 788.436 315.063Q788.435 315.115 788.423 315.166Z" id="star-10" fill="#FFFFFF" fill-opacity="0.49803922" fill-rule="evenodd" stroke="none" />
    <path d="M771.538 252.71L771.538 252.712Q771.526 252.762 771.505 252.81Q771.483 252.857 771.453 252.899Q771.423 252.942 771.385 252.977Q771.347 253.013 771.303 253.04Q771.259 253.068 771.211 253.086Q771.162 253.105 771.111 253.113Q771.06 253.122 771.008 253.12Q770.956 253.119 770.905 253.107L770.839 253.092Q770.788 253.08 770.741 253.059Q770.693 253.037 770.651 253.007Q770.609 252.977 770.573 252.939Q770.537 252.901 770.51 252.857Q770.482 252.813 770.464 252.765Q770.445 252.716 770.437 252.665Q770.428 252.614 770.43 252.562Q770.432 252.51 770.443 252.459L770.444 252.457Q770.455 252.407 770.477 252.359Q770.498 252.312 770.528 252.269Q770.558 252.227 770.596 252.192Q770.634 252.156 770.678 252.128Q770.722 252.101 770.771 252.083Q770.819 252.064 770.871 252.056Q770.922 252.047 770.974 252.049Q771.026 252.05 771.076 252.062L771.143 252.077Q771.193 252.089 771.241 252.11Q771.288 252.132 771.33 252.162Q771.373 252.192 771.408 252.23Q771.444 252.268 771.472 252.312Q771.499 252.356 771.517 252.404Q771.536 252.453 771.544 252.504Q771.553 252.555 771.551 252.607Q771.55 252.659 771.538 252.71Z" id="star-11" fill="#FFFFFF" fill-opacity="0.49803922" fill-rule="evenodd" stroke="none" />
    <path d="M622.916 423.495L622.915 423.497Q622.903 423.548 622.882 423.595Q622.861 423.643 622.831 423.685Q622.8 423.727 622.763 423.763Q622.725 423.799 622.681 423.826Q622.637 423.854 622.588 423.872Q622.539 423.89 622.488 423.899Q622.437 423.908 622.385 423.906Q622.333 423.904 622.282 423.893L622.216 423.877Q622.165 423.866 622.118 423.844Q622.071 423.823 622.028 423.793Q621.986 423.763 621.95 423.725Q621.915 423.687 621.887 423.643Q621.86 423.599 621.841 423.55Q621.823 423.502 621.814 423.45Q621.806 423.399 621.807 423.347Q621.809 423.295 621.821 423.245L621.821 423.243Q621.833 423.192 621.854 423.145Q621.875 423.097 621.906 423.055Q621.936 423.013 621.974 422.977Q622.011 422.942 622.056 422.914Q622.1 422.887 622.148 422.868Q622.197 422.85 622.248 422.841Q622.299 422.833 622.351 422.834Q622.403 422.836 622.454 422.848L622.52 422.863Q622.571 422.875 622.618 422.896Q622.666 422.917 622.708 422.947Q622.75 422.977 622.786 423.015Q622.821 423.053 622.849 423.097Q622.876 423.141 622.895 423.19Q622.913 423.238 622.922 423.29Q622.93 423.341 622.929 423.393Q622.927 423.445 622.916 423.495Z" id="star-12" fill="#FFFFFF" fill-opacity="0.49803922" fill-rule="evenodd" stroke="none" />
    <path d="M954.625 388.791L954.626 388.792Q954.665 388.827 954.696 388.868Q954.727 388.91 954.749 388.957Q954.771 389.004 954.784 389.054Q954.797 389.104 954.8 389.156Q954.802 389.208 954.795 389.26Q954.787 389.311 954.77 389.36Q954.753 389.409 954.726 389.454Q954.7 389.498 954.665 389.537L954.619 389.588Q954.585 389.626 954.543 389.657Q954.501 389.688 954.454 389.711Q954.407 389.733 954.357 389.746Q954.307 389.759 954.255 389.761Q954.203 389.764 954.152 389.757Q954.1 389.749 954.051 389.732Q954.002 389.714 953.958 389.688Q953.913 389.661 953.874 389.627L953.873 389.625Q953.834 389.591 953.803 389.549Q953.772 389.507 953.75 389.46Q953.727 389.413 953.715 389.363Q953.702 389.313 953.699 389.261Q953.696 389.209 953.704 389.158Q953.711 389.106 953.729 389.057Q953.746 389.008 953.773 388.964Q953.799 388.919 953.834 388.88L953.88 388.83Q953.914 388.791 953.956 388.76Q953.998 388.729 954.044 388.706Q954.091 388.684 954.142 388.671Q954.192 388.658 954.244 388.656Q954.296 388.653 954.347 388.66Q954.399 388.668 954.448 388.685Q954.497 388.703 954.541 388.729Q954.586 388.756 954.625 388.791Z" id="star-17" fill="#FFFFFF" fill-opacity="0.49803922" fill-rule="evenodd" stroke="none" />
    <path d="M857.785 619.84L857.784 619.842Q857.763 619.889 857.733 619.931Q857.703 619.974 857.665 620.01Q857.627 620.045 857.583 620.073Q857.539 620.101 857.491 620.12Q857.442 620.138 857.391 620.147Q857.34 620.156 857.288 620.154Q857.236 620.153 857.185 620.142Q857.135 620.13 857.087 620.109L857.025 620.081Q856.977 620.06 856.935 620.03Q856.893 620 856.857 619.962Q856.821 619.925 856.793 619.881Q856.766 619.837 856.747 619.788Q856.728 619.74 856.72 619.689Q856.711 619.637 856.712 619.586Q856.713 619.534 856.725 619.483Q856.736 619.432 856.758 619.385L856.758 619.383Q856.779 619.336 856.81 619.293Q856.839 619.251 856.877 619.215Q856.915 619.179 856.959 619.151Q857.003 619.124 857.051 619.105Q857.1 619.086 857.151 619.078Q857.202 619.069 857.254 619.07Q857.306 619.072 857.357 619.083Q857.407 619.094 857.455 619.116L857.517 619.143Q857.565 619.165 857.607 619.195Q857.65 619.224 857.685 619.262Q857.721 619.3 857.749 619.344Q857.776 619.388 857.795 619.436Q857.814 619.485 857.823 619.536Q857.831 619.587 857.83 619.639Q857.829 619.691 857.817 619.742Q857.806 619.792 857.785 619.84Z" id="star-18" fill="#FFFFFF" fill-opacity="0.49803922" fill-rule="evenodd" stroke="none" />
    <path d="M1159.66 572.058L1159.66 572.059Q1159.7 572.094 1159.73 572.136Q1159.76 572.177 1159.78 572.224Q1159.81 572.271 1159.82 572.322Q1159.83 572.372 1159.83 572.424Q1159.84 572.476 1159.83 572.527Q1159.82 572.578 1159.8 572.628Q1159.79 572.676 1159.76 572.721Q1159.73 572.766 1159.7 572.804L1159.65 572.855Q1159.62 572.894 1159.58 572.925Q1159.54 572.956 1159.49 572.978Q1159.44 573 1159.39 573.013Q1159.34 573.026 1159.29 573.029Q1159.24 573.032 1159.19 573.024Q1159.13 573.017 1159.09 572.999Q1159.04 572.982 1158.99 572.956Q1158.95 572.929 1158.91 572.894L1158.91 572.893Q1158.87 572.858 1158.84 572.816Q1158.81 572.775 1158.78 572.728Q1158.76 572.681 1158.75 572.631Q1158.74 572.58 1158.73 572.528Q1158.73 572.476 1158.74 572.425Q1158.75 572.374 1158.76 572.325Q1158.78 572.276 1158.81 572.231Q1158.83 572.186 1158.87 572.148L1158.91 572.097Q1158.95 572.059 1158.99 572.027Q1159.03 571.996 1159.08 571.974Q1159.13 571.952 1159.18 571.939Q1159.23 571.926 1159.28 571.923Q1159.33 571.921 1159.38 571.928Q1159.43 571.935 1159.48 571.953Q1159.53 571.97 1159.58 571.997Q1159.62 572.023 1159.66 572.058Z" id="star-20" fill="#FFFFFF" fill-opacity="0.49803922" fill-rule="evenodd" stroke="none" />
    <path d="M1063.61 630.906L1063.61 630.907Q1063.65 630.942 1063.68 630.983Q1063.71 631.025 1063.74 631.072Q1063.76 631.119 1063.77 631.169Q1063.78 631.219 1063.79 631.271Q1063.79 631.323 1063.78 631.375Q1063.78 631.426 1063.76 631.475Q1063.74 631.524 1063.71 631.569Q1063.69 631.613 1063.65 631.652L1063.61 631.703Q1063.57 631.741 1063.53 631.772Q1063.49 631.804 1063.44 631.826Q1063.39 631.848 1063.34 631.861Q1063.29 631.874 1063.24 631.877Q1063.19 631.879 1063.14 631.872Q1063.09 631.864 1063.04 631.847Q1062.99 631.83 1062.94 631.803Q1062.9 631.777 1062.86 631.742L1062.86 631.74Q1062.82 631.706 1062.79 631.664Q1062.76 631.622 1062.74 631.576Q1062.71 631.529 1062.7 631.478Q1062.69 631.428 1062.69 631.376Q1062.68 631.324 1062.69 631.273Q1062.7 631.221 1062.72 631.172Q1062.73 631.123 1062.76 631.079Q1062.79 631.034 1062.82 630.996L1062.87 630.945Q1062.9 630.906 1062.94 630.875Q1062.98 630.844 1063.03 630.822Q1063.08 630.799 1063.13 630.786Q1063.18 630.774 1063.23 630.771Q1063.28 630.768 1063.33 630.776Q1063.39 630.783 1063.43 630.8Q1063.48 630.818 1063.53 630.844Q1063.57 630.871 1063.61 630.906Z" id="star-23" fill="#FFFFFF" fill-opacity="0.49803922" fill-rule="evenodd" stroke="none" />
    <path d="M1146.62 663.282L1146.62 663.283Q1146.58 663.313 1146.53 663.333Q1146.49 663.354 1146.43 663.366Q1146.38 663.377 1146.33 663.378Q1146.28 663.379 1146.23 663.37Q1146.18 663.361 1146.13 663.342Q1146.08 663.323 1146.04 663.295Q1145.99 663.268 1145.96 663.232Q1145.92 663.196 1145.89 663.153L1145.85 663.097Q1145.82 663.055 1145.8 663.007Q1145.78 662.96 1145.77 662.909Q1145.76 662.858 1145.75 662.806Q1145.75 662.754 1145.76 662.703Q1145.77 662.652 1145.79 662.604Q1145.81 662.555 1145.84 662.511Q1145.86 662.467 1145.9 662.43Q1145.94 662.392 1145.98 662.363L1145.98 662.362Q1146.02 662.332 1146.07 662.311Q1146.12 662.29 1146.17 662.279Q1146.22 662.267 1146.27 662.266Q1146.32 662.265 1146.37 662.274Q1146.43 662.283 1146.47 662.302Q1146.52 662.321 1146.57 662.349Q1146.61 662.377 1146.65 662.413Q1146.69 662.448 1146.72 662.491L1146.75 662.547Q1146.78 662.589 1146.8 662.637Q1146.83 662.685 1146.84 662.735Q1146.85 662.786 1146.85 662.838Q1146.85 662.89 1146.84 662.941Q1146.83 662.992 1146.81 663.041Q1146.79 663.089 1146.77 663.133Q1146.74 663.177 1146.7 663.214Q1146.67 663.252 1146.62 663.282Z" id="star-25" fill="#FFFFFF" fill-opacity="0.49803922" fill-rule="evenodd" stroke="none" />
    <path d="M668.581 234.13L668.58 234.132Q668.568 234.182 668.547 234.23Q668.526 234.277 668.496 234.319Q668.465 234.362 668.428 234.397Q668.39 234.433 668.346 234.46Q668.302 234.488 668.253 234.506Q668.204 234.525 668.153 234.533Q668.102 234.542 668.05 234.54Q667.998 234.539 667.948 234.527L667.881 234.512Q667.83 234.5 667.783 234.479Q667.736 234.457 667.693 234.427Q667.651 234.397 667.615 234.359Q667.58 234.321 667.552 234.277Q667.525 234.233 667.506 234.185Q667.488 234.136 667.479 234.085Q667.471 234.034 667.472 233.982Q667.474 233.93 667.486 233.879L667.486 233.877Q667.498 233.826 667.519 233.779Q667.54 233.732 667.571 233.689Q667.601 233.647 667.639 233.612Q667.677 233.576 667.721 233.548Q667.765 233.521 667.813 233.502Q667.862 233.484 667.913 233.475Q667.964 233.467 668.016 233.468Q668.068 233.47 668.119 233.482L668.185 233.497Q668.236 233.509 668.283 233.53Q668.331 233.551 668.373 233.582Q668.415 233.612 668.451 233.65Q668.486 233.687 668.514 233.732Q668.541 233.776 668.56 233.824Q668.578 233.873 668.587 233.924Q668.595 233.975 668.594 234.027Q668.592 234.079 668.581 234.13Z" id="star-13" fill="#FFFFFF" fill-opacity="0.49803922" fill-rule="evenodd" stroke="none" />
  </g>
</svg>